<svg width="25" height="25" viewBox="0 0 25 25" fill="none" xmlns="http://www.w3.org/2000/svg">
<g clip-path="url(#clip0)">
<path d="M3.3276 3.62693C-1.10898 8.06364 -1.10974 15.2577 3.3276 19.6959C7.02033 23.3888 12.6227 24.0046 16.9578 21.5495L25 24.7015L21.3209 17.128C23.6941 12.8125 23.0548 7.28341 19.3976 3.62617C14.9588 -0.812065 7.76418 -0.810549 3.3276 3.62693ZM19.1772 16.778L19.3749 17.1658L20.2021 18.7884L20.2066 18.796L21.5072 21.4745L18.6682 20.361L18.6401 20.3496L16.8585 19.6808L16.4177 19.5149C12.8022 21.845 7.91795 21.4283 4.75697 18.268C1.11272 14.6237 1.11272 8.69692 4.7547 5.05407C8.3982 1.41122 14.3247 1.41122 17.9675 5.05483C21.1482 8.2356 21.5511 13.1564 19.1772 16.778Z" fill="white"/>
<path d="M7.44987 13.5412C8.2167 13.5412 8.83834 12.9195 8.83834 12.1527C8.83834 11.3858 8.2167 10.7642 7.44987 10.7642C6.68304 10.7642 6.0614 11.3858 6.0614 12.1527C6.0614 12.9195 6.68304 13.5412 7.44987 13.5412Z" fill="white"/>
<path d="M11.7425 13.5412C12.5093 13.5412 13.1309 12.9195 13.1309 12.1527C13.1309 11.3858 12.5093 10.7642 11.7425 10.7642C10.9756 10.7642 10.354 11.3858 10.354 12.1527C10.354 12.9195 10.9756 13.5412 11.7425 13.5412Z" fill="white"/>
<path d="M16.0345 13.5412C16.8013 13.5412 17.4229 12.9195 17.4229 12.1527C17.4229 11.3858 16.8013 10.7642 16.0345 10.7642C15.2676 10.7642 14.646 11.3858 14.646 12.1527C14.646 12.9195 15.2676 13.5412 16.0345 13.5412Z" fill="white"/>
</g>
<defs>
<clipPath id="clip0">
<rect width="25" height="25" fill="white"/>
</clipPath>
</defs>
</svg>
