<svg width="50" height="42" viewBox="0 0 50 42" fill="none" xmlns="http://www.w3.org/2000/svg">
<g clip-path="url(#clip0)">
<path d="M0.397533 21.0839C1.72127 17.6507 10.0732 6.45298 13.305 3.81448C15.3403 2.1535 17.6936 0.719012 20.3053 0.440857C22.917 0.162703 25.8149 1.29916 26.9638 3.66348C27.5521 1.96674 29.4363 0.961405 31.2291 0.961405C33.022 0.961405 34.7353 1.70845 36.2856 2.61444C40.0858 4.8414 43.2898 7.95547 45.6233 11.6902C47.3446 14.4718 49.1016 16.8043 49.7575 19.9316C47.1299 24.5172 45.7823 29.5001 41.9423 34.2367C38.5594 38.3852 33.0418 40.1654 27.723 40.6978C21.1997 41.3416 13.937 40.0899 9.63986 35.1347C7.58071 32.7505 2.2142 23.5516 0.238525 21.2508" fill="#D83131"/>
<path d="M1.88425 20.2613C1.88425 20.2613 16.5249 22.2481 22.6149 14.3406C22.6149 14.3406 25.3975 16.6453 28.534 15.0002C28.534 15.0002 31.3166 20.5911 48.4417 19.6057C48.4417 19.6057 28.8639 21.5925 25.5764 24.5369C25.5764 24.5369 24.4236 20.9209 16.6918 21.4137C8.96009 21.9064 3.20004 21.5766 1.88425 20.2613Z" fill="#C03333"/>
<path d="M24.0937 16.9751C24.0937 16.9751 22.9409 20.9209 7.31436 21.0838L20.1463 20.5911C20.1463 20.5911 23.2708 19.9355 25.7394 22.0733C26.0631 21.5804 26.5018 21.1736 27.0177 20.8877C27.5336 20.6018 28.1112 20.4455 28.7009 20.4322H37.9114C37.9114 20.4322 27.7151 19.7725 27.0552 18.1275C27.0552 18.1235 23.7637 18.946 24.0937 16.9751Z" fill="#5F0D18"/>
<path d="M10.3792 11.8253C10.0891 11.7542 9.78493 11.7652 9.50071 11.8571C9.30213 11.9421 9.13039 12.0795 9.00382 12.2545C8.77862 12.5199 8.62533 12.8387 8.55859 13.1803C8.55859 13.224 8.65797 13.2638 8.67785 13.2717C8.83732 13.3165 9.00134 13.3432 9.1668 13.3512C9.37237 13.3935 9.58448 13.3927 9.78974 13.3489C9.995 13.3052 10.1889 13.2193 10.3594 13.0969C10.4949 13.0106 10.6112 12.8973 10.7008 12.7639C10.7904 12.6305 10.8515 12.4801 10.8801 12.322C10.8761 12.024 10.6217 11.8809 10.3792 11.8253Z" fill="white"/>
<path d="M15.5669 7.7166C15.6261 7.61651 15.6653 7.50583 15.6821 7.39076C15.6938 7.36106 15.7031 7.3305 15.71 7.29937C15.8332 6.76292 15.2449 6.36953 14.7718 6.36953H14.7082C14.1159 6.1788 13.6866 6.56424 13.293 6.99737L13.1261 7.18016C12.8938 7.35345 12.6853 7.55653 12.506 7.78415C12.1431 8.12225 11.7981 8.47904 11.4724 8.85306C11.3526 8.95798 11.2592 9.08965 11.1998 9.2374C11.1404 9.38514 11.1167 9.5448 11.1305 9.70342C11.1203 9.74785 11.1137 9.79303 11.1107 9.83852V9.85839C11.1107 9.85839 11.0669 9.93389 11.051 9.96965C11.0351 10.0054 11.1107 10.0769 11.222 10.1604C11.3274 10.3066 11.463 10.4285 11.6195 10.518C12.1283 10.8597 12.4503 10.8041 12.9392 10.4306C13.9251 9.68753 14.8314 8.80935 15.7656 8.00667V7.99475C15.7102 7.89478 15.6435 7.80145 15.5669 7.7166Z" fill="white"/>
<path d="M36.2975 6.43708C36.3214 6.43708 36.3253 6.43708 36.2975 6.41324C36.0916 6.13642 35.86 5.87965 35.6058 5.64633C35.2601 5.27214 34.8441 4.96969 34.3815 4.75623C34.0744 4.51145 33.7058 4.35607 33.3161 4.30721C33.0259 4.19992 32.7676 4.19197 32.6523 4.41052C32.6034 4.4018 32.553 4.40907 32.5086 4.43126C32.4642 4.45346 32.4281 4.48939 32.4058 4.53371C32.2985 4.75226 32.5569 5.09002 32.8033 5.32844C32.9072 5.48669 33.0425 5.62194 33.2008 5.7258L33.3122 5.83706C33.3519 6.19072 33.7574 6.48874 34.0674 6.6914C34.3775 6.89405 35.093 7.36294 35.4627 7.08876C35.5943 7.1081 35.7274 7.11475 35.8602 7.10863C35.904 7.10863 35.8602 7.06889 35.8602 7.053C35.8602 7.0371 35.737 6.91392 35.6734 6.84637C35.8311 6.91904 36.0055 6.94787 36.1783 6.92981C36.5003 6.89405 36.4645 6.67947 36.2975 6.43708Z" fill="white"/>
<path d="M38.786 8.90869C38.7343 8.61464 38.4163 8.45967 38.1778 8.34046C38.0672 8.31385 37.9528 8.30712 37.8399 8.32059C37.7345 8.30594 37.6282 8.2993 37.5218 8.30073C37.4344 8.30073 37.021 8.33649 37.021 8.49146C37.019 8.51394 37.019 8.53654 37.021 8.55901C37.0076 8.72488 37.0435 8.89099 37.1241 9.03658C37.2047 9.18217 37.3265 9.30078 37.4741 9.37758H37.498C37.6287 9.46331 37.7793 9.51395 37.9353 9.52461C38.1748 9.56559 38.4212 9.52501 38.6349 9.40937C38.6865 9.36716 38.7267 9.31264 38.7517 9.25084C38.7767 9.18903 38.7857 9.12194 38.778 9.05572C38.7888 9.00749 38.7915 8.9578 38.786 8.90869Z" fill="white"/>
<path d="M16.8031 30.6127L16.7515 30.5809C16.7872 30.5332 16.7872 30.4736 16.7197 30.3981L16.66 30.3385C16.6004 29.9173 16.0439 29.667 15.5788 29.5001C15.2559 29.3262 14.9127 29.1927 14.5572 29.1027C14.0682 28.8842 13.4878 28.6537 13.0545 28.7888C12.9512 28.7831 12.8484 28.8065 12.7577 28.8564C12.667 28.9063 12.5922 28.9806 12.5417 29.0709C12.2913 29.5676 12.9909 30.0365 13.3368 30.2392C14.0447 30.6643 14.8344 30.9351 15.6543 31.0339C15.6926 31.0379 15.7313 31.0379 15.7696 31.0339C15.857 31.0339 15.9445 31.0339 16.0359 31.0577C16.1551 31.0601 16.2733 31.0357 16.3818 30.9862H16.4931C16.66 30.9942 17.1291 30.8233 16.8031 30.6127Z" fill="white"/>
<path d="M36.4327 28.3517C33.7017 29.4921 31.0423 31.4988 27.9258 31.0538C27.8303 31.0538 27.7906 31.0776 27.7787 31.1452C27.6872 31.1452 27.6515 31.2405 27.6713 31.3359C27.7309 31.6794 27.9003 31.9944 28.1539 32.2336C28.4076 32.4729 28.732 32.6236 29.0786 32.6631C29.244 32.7092 29.4171 32.7214 29.5874 32.6989C30.0825 32.6814 30.5737 32.604 31.0503 32.4684C31.8766 32.2456 32.6763 31.9338 33.4354 31.5386L33.5029 31.5147C34.7432 31.0498 36.7825 30.4816 36.9693 28.9199C36.9693 28.7133 36.6752 28.2484 36.4327 28.3517Z" fill="white"/>
</g>
<defs>
<clipPath id="clip0">
<rect width="50" height="40.9722" fill="white" transform="translate(0 0.166626)"/>
</clipPath>
</defs>
</svg>
